<svg class="w-12" viewBox="0 0 35 38" fill="none" xmlns="http://www.w3.org/2000/svg">
    <path d="M6.875 4.85095H3.125C2.77938 4.85095 2.5 5.13033 2.5 5.47595V12.351H0V13.601H3.125H6.875H9.375H13.125H15.625H19.375H21.875H25.625H28.125H31.875H35V12.351H32.5V6.10095C32.5 5.75533 32.2206 5.47595 31.875 5.47595H28.125C27.7794 5.47595 27.5 5.75533 27.5 6.10095V12.351H26.25V1.10095C26.25 0.755327 25.9706 0.475952 25.625 0.475952H21.875C21.5294 0.475952 21.25 0.755327 21.25 1.10095V12.351H20V4.22595C20 3.88033 19.7206 3.60095 19.375 3.60095H15.625C15.2794 3.60095 15 3.88033 15 4.22595V12.351H13.75V7.97595C13.75 7.63033 13.4706 7.35095 13.125 7.35095H9.375C9.02938 7.35095 8.75 7.63033 8.75 7.97595V12.351H7.5V5.47595C7.5 5.13033 7.22062 4.85095 6.875 4.85095ZM3.75 12.351V6.10095H6.25V12.351H3.75ZM28.75 6.72595H31.25V12.351H28.75V6.72595ZM22.5 1.72595H25V12.351H22.5V1.72595ZM16.25 4.85095H18.75V12.351H16.25V4.85095ZM10 8.60095H12.5V12.351H10V8.60095ZM25.8081 15.0341L17.5 23.3422L9.19188 15.0341L8.30812 15.9178L17.0581 24.6678C17.18 24.7897 17.34 24.851 17.5 24.851C17.66 24.851 17.82 24.7897 17.9419 24.6678L26.6919 15.9178L25.8081 15.0341Z" fill="currentColor"/>
    <path d="M13.0138 22.0897C10.5994 22.5247 9.375 23.2441 9.375 24.226V27.976V31.726V35.476C9.375 37.4491 14.4825 37.976 17.5 37.976C20.5175 37.976 25.625 37.4491 25.625 35.476V31.726V27.976V24.226C25.625 23.2441 24.4006 22.5247 21.9863 22.0897L21.7644 23.3203C23.5288 23.6385 24.2 24.0553 24.3538 24.2291C23.9931 24.7003 21.5325 25.476 17.5 25.476C13.4675 25.476 11.0069 24.7003 10.6469 24.2291C10.8 24.0553 11.4712 23.6385 13.2362 23.3203L13.0138 22.0897ZM10.625 29.416C12.3306 30.2235 15.4138 30.476 17.5 30.476C19.5875 30.476 22.6731 30.2228 24.3781 29.4141L24.3831 31.6816C24.1613 32.146 21.6719 32.976 17.5 32.976C13.3281 32.976 10.8388 32.146 10.625 31.726V29.416ZM17.5 36.726C13.3281 36.726 10.8388 35.896 10.625 35.476V33.166C12.3306 33.9735 15.4138 34.226 17.5 34.226C19.5875 34.226 22.6731 33.9728 24.3781 33.1641L24.3831 35.4316C24.1613 35.896 21.6719 36.726 17.5 36.726ZM17.5 26.726C19.5875 26.726 22.6731 26.4728 24.3781 25.6641L24.3831 27.9316C24.1613 28.396 21.6719 29.226 17.5 29.226C13.3281 29.226 10.8388 28.396 10.625 27.976V25.666C12.3306 26.4735 15.4138 26.726 17.5 26.726Z" fill="currentColor"/>
</svg>